HIERARCHY
ROOT Hips
{
	OFFSET 0.00000 0.00000 0.00000
	CHANNELS 6 Xposition Yposition Zposition Yrotation Zrotation Xrotation 
	JOINT Lumbar
	{
		OFFSET 0 0 0
		CHANNELS 3 Zrotation Xrotation Yrotation
		JOINT Neck
		{
			OFFSET 0.00 0.2701 0.00
			CHANNELS 3 Zrotation Xrotation Yrotation
			End Site
			{
				OFFSET 0.00 0.1379 0.00
			}
		}
		JOINT RightShoulder
		{
			OFFSET 0.0119 0.2289 0.1181
			CHANNELS 3 Zrotation Xrotation Yrotation
			JOINT RightElbow
			{
				OFFSET 0.00 -0.1475 0.00
				CHANNELS 2 Zrotation Yrotation
				JOINT RightWrist
				{
					OFFSET 0.00 -0.1605 0.00
					CHANNELS 2 Zrotation Xrotation
					End Site
					{
						OFFSET 0.0040 -0.1068 0.0006
					}
				}
			}
		}
		JOINT LeftShoulder
		{
			OFFSET 0.0119 0.2289 -0.1181
			CHANNELS 3 Zrotation Xrotation Yrotation
			JOINT LeftElbow
			{
				OFFSET 0.00 -0.1475 0.00
				CHANNELS 2 Zrotation Yrotation
				JOINT LeftWrist
				{
					OFFSET 0.00 -0.1605 0.00
					CHANNELS 2 Zrotation Xrotation
					End Site
					{
						OFFSET 0.0040 -0.1068 -0.0006
					}
				}
			}
		}
	}
	JOINT RightHip
	{
		OFFSET 0.0316 -0.0424 0.0458
		CHANNELS 3 Zrotation Xrotation Yrotation
		JOINT RightKnee
		{
			OFFSET 0.00 -0.2438 0.00
			CHANNELS 1 Zrotation
			JOINT RightAnkle
			{
				OFFSET 0.00 -0.2449 0.00
				CHANNELS 3 Zrotation Xrotation Yrotation
				End Site
				{
					OFFSET 0.1237 -0.0542 0.0051
				}
			}
		}
	}
	JOINT LeftHip
	{
		OFFSET 0.0316 -0.0424 -0.0458
		CHANNELS 3 Zrotation Xrotation Yrotation
		JOINT LeftKnee
		{
			OFFSET 0.00 -0.2438 0.00
			CHANNELS 1 Zrotation
			JOINT LeftAnkle
			{
				OFFSET 0.00 -0.2449 0.00
				CHANNELS 3 Zrotation Xrotation Yrotation
				End Site
				{
					OFFSET 0.1237 -0.0542 -0.0051
				}
			}
		}
	}
}
MOTION
Frames: 22
Frame Time: 0.02
-0.08715 -0.00681 0.10661 173.37496 -43.36155 4.15639 47.5708 -2.26843 5.11444 -3.76566 -3.27186 -2.11994 166.3869 -109.53245 -87.14682 134.29175 84.88617 -75.22919 -21.88572 21.03631 63.18236 -52.56715 121.63129 -99.86607 30.03564 0.72634 59.61026 -12.7989 -13.03732 -37.61757 -8.17787 -3.39417 -3.96223 51.50397 2.10171 13.59895 -27.67018 -6.86139 2.72467 3.57081
-0.08633 -0.00599 0.10219 172.79862 -43.44686 3.51447 47.15953 -1.98064 5.64455 -2.48 -3.07326 -2.11994 166.38714 -113.18209 -87.1472 134.30543 85.70134 -75.22941 -21.88577 25.72036 60.17922 -52.75049 119.9232 -102.00467 31.12916 0.42962 58.88784 -11.71685 -13.16596 -36.27768 -8.03298 -3.29605 -3.90621 51.81596 2.7607 12.02334 -27.83502 -7.06287 2.83521 3.63213
-0.08544 -0.00517 0.09762 172.21374 -43.53971 2.86571 46.70225 -1.68509 6.20173 -0.97226 -2.84808 -2.11994 166.38647 -117.91618 -87.14613 134.30036 85.95685 -75.22878 -21.8854 30.02843 56.27596 -52.9458 117.45737 -102.61295 31.68518 0.39009 58.19015 -10.57297 -13.24483 -34.88512 -7.91157 -3.19954 -3.85278 52.15739 3.40295 10.19451 -28.0007 -7.29137 2.94952 3.69792
-0.08458 -0.00436 0.09313 171.64233 -43.62396 2.23389 46.27131 -1.39892 6.73387 0.40955 -2.64002 -2.11994 166.38744 -122.17422 -87.14767 134.30114 86.39167 -75.22965 -21.88548 34.43445 52.76611 -53.09295 115.25181 -103.86778 32.41873 0.23549 57.48599 -9.47152 -13.34273 -33.53366 -7.78232 -3.10343 -3.79894 52.47355 4.05096 8.53408 -28.15944 -7.50336 3.05843 3.75969
-0.0837 -0.0035 0.08856 171.02948 -43.72925 1.54189 45.81469 -1.08771 7.32123 1.90143 -2.40986 -2.11994 166.38724 -126.39199 -87.14735 134.30238 87.16264 -75.22944 -21.88526 39.16989 49.29444 -53.41179 113.40168 -105.33205 33.47372 0.07337 56.75959 -8.30256 -13.44761 -32.10306 -7.6436 -3.00252 -3.74203 52.83907 4.7111 6.65327 -28.34539 -7.73373 3.18248 3.82957
-0.08286 -0.00276 0.08413 170.50106 -43.79299 0.97437 45.40193 -0.82701 7.79971 3.21516 -2.21991 -2.11994 166.38421 -130.92166 -87.14258 134.29741 87.10532 -75.2267 -21.8846 43.13153 45.54725 -53.3872 110.62108 -105.9938 33.71888 -0.01163 56.08653 -7.26212 -13.52994 -30.82727 -7.5293 -2.91218 -3.69213 53.11002 5.33994 5.16826 -28.47635 -7.93217 3.27618 3.88381
-0.08217 -0.00232 0.08014 170.21082 -43.73783 0.75153 45.1187 -0.70687 7.96745 3.98061 -2.14537 -2.11994 166.39327 -136.22397 -87.15688 134.30968 84.7455 -75.2349 -21.88654 44.92291 41.17702 -52.31186 105.5849 -104.83546 31.82796 0.04852 55.55069 -6.59326 -13.55417 -29.99375 -7.47568 -2.84838 -3.65994 53.1017 5.89132 4.85425 -28.44041 -8.03412 3.28348 3.8929
-0.08152 -0.002 0.07631 170.00547 -43.641 0.6545 44.88213 -0.63792 8.02498 4.5584 -2.11271 -2.11994 166.37952 -141.73858 -87.13512 134.29151 81.59475 -75.2225 -21.88425 45.96576 36.58223 -50.90858 99.61999 -102.9192 29.14143 0.17831 55.06872 -6.05674 -13.56011 -29.31893 -7.44564 -2.79551 -3.63484 52.99953 6.41034 4.94399 -28.35252 -8.10323 3.26046 3.88629
-0.08085 -0.00164 0.07241 169.75949 -43.56501 0.5007 44.62634 -0.54626 8.13511 5.2233 -2.06235 -2.11994 166.38404 -147.07641 -87.14238 134.29754 78.90159 -75.22666 -21.88537 47.4308 32.14279 -49.72114 93.99273 -101.33439 26.83226 0.27918 54.56491 -5.45943 -13.58057 -28.57058 -7.40512 -2.73913 -3.60714 52.94701 6.94037 4.83766 -28.29707 -8.18835 3.25245 3.88747
-0.0802 -0.00123 0.06848 169.52184 -43.48171 0.34529 44.36027 -0.45245 8.23601 5.89007 -2.00539 -2.11994 166.42213 -152.91327 -87.20238 134.34761 75.77651 -75.26102 -21.89291 48.54325 27.43245 -48.25378 88.67918 -99.74676 24.43409 0.37712 54.05059 -4.86194 -13.5724 -27.82426 -7.36455 -2.67682 -3.57697 52.86455 7.48535 4.77503 -28.20122 -8.26977 3.2394 3.88604
-0.0795 -0.00095 0.06467 169.28712 -43.40307 0.22275 44.12761 -0.37477 8.32912 6.50325 -1.9725 -2.11994 166.3009 -157.59397 -87.0109 134.18772 73.36872 -75.15156 -21.87014 50.20938 23.26252 -47.28928 82.52172 -98.01032 22.04466 0.49484 53.57088 -4.29785 -13.62089 -27.11453 -7.32926 -2.62924 -3.55351 52.82355 7.99189 4.72137 -28.18115 -8.35083 3.22959 3.88626
-0.07863 -0.00096 0.06112 169.03999 -43.35259 0.16433 43.97428 -0.3346 8.43154 7.03117 -1.99558 -2.11994 166.49402 -160.38671 -87.31652 134.44323 73.15028 -75.32621 -21.90668 53.65294 20.49694 -47.81129 74.09582 -96.01371 19.82786 0.64459 53.17164 -3.78789 -13.82432 -26.44714 -7.30351 -2.62131 -3.54769 52.90499 8.39803 4.58834 -28.3486 -8.43827 3.23628 3.89486
-0.07769 -0.00111 0.05769 168.79292 -43.30745 0.13396 43.85394 -0.30795 8.529 7.50682 -2.04149 -2.11994 166.40887 -161.78774 -87.18039 134.32857 73.68029 -75.24859 -21.89024 57.66816 18.3161 -48.8466 64.89032 -93.91078 17.65849 0.81141 52.80576 -3.30847 -14.08645 -25.81522 -7.282 -2.62754 -3.54823 53.03418 8.76679 4.45303 -28.60021 -8.52657 3.24732 3.90566
-0.07679 -0.00121 0.05423 168.54562 -43.25628 0.088 43.71915 -0.27148 8.62614 7.99496 -2.07735 -2.11994 165.93331 -162.88261 -86.4316 133.70488 73.86116 -74.8201 -21.80007 61.38182 15.96348 -49.63617 56.15037 -91.88309 15.50026 0.97295 52.42551 -2.81903 -14.32631 -25.18024 -7.25792 -2.62614 -3.54526 53.15103 9.15446 4.3231 -28.83633 -8.61464 3.25617 3.91536
-0.07586 -0.00125 0.05068 168.30193 -43.21814 0.05823 43.58183 -0.25212 8.73056 8.5265 -2.11371 -2.11994 167.55247 -167.79244 -88.98862 135.83934 74.05454 -76.2822 -22.10684 65.24945 13.19811 -50.46991 46.89587 -89.70163 13.17594 1.12729 52.04314 -2.31749 -14.54826 -24.49516 -7.23735 -2.63 -3.54505 53.22457 9.53396 4.18729 -28.97595 -8.7005 3.26455 3.92479
-0.07499 -0.00145 0.04733 168.04988 -43.1556 -1e-05 43.45931 -0.19989 8.81976 8.95482 -2.15337 -2.11994 164.85155 -164.61841 -84.71505 132.26696 74.4069 -73.8397 -21.59419 68.93692 11.4439 -51.33407 38.55517 -87.84118 11.21922 1.29892 51.67325 -1.84716 -14.81997 -23.92136 -7.21026 -2.62631 -3.54063 53.40157 9.92066 4.05982 -29.33549 -8.79212 3.27572 3.93573
-0.07422 -0.00207 0.04446 167.77176 -43.01624 -0.14675 43.34983 -0.05108 8.87138 9.13455 -2.20069 -2.11994 149.34832 -137.76712 -60.30835 111.94153 75.04924 -59.87267 -18.6573 72.03473 12.26108 -52.18857 32.80816 -86.76334 10.27245 1.51748 51.32153 -1.45075 -15.23025 -23.64048 -7.16307 -2.59694 -3.52207 53.84673 10.34863 3.93914 -30.29652 -8.89519 3.2903 3.94838
-0.07353 -0.00284 0.04178 167.48512 -42.85371 -0.32346 43.25763 0.13127 8.90786 9.20806 -2.24922 -2.11994 129.67862 -103.13666 -29.29459 86.08478 75.82533 -42.13148 -14.92788 74.92692 14.09151 -53.05025 28.03607 -86.04041 9.69774 1.74984 50.9821 -1.0847 -15.68608 -23.4704 -7.10921 -2.55977 -3.49923 54.3957 10.78333 3.82855 -31.47308 -9.0051 3.30828 3.96293
-0.07284 -0.00353 0.03903 167.20415 -42.70751 -0.48475 43.17015 0.29667 8.94963 9.31647 -2.29477 -2.11994 112.53914 -73.18744 -2.2181 63.4767 76.51949 -26.65032 -11.67868 77.88514 15.51009 -53.89112 22.89996 -85.24421 8.95134 1.97582 50.64256 -0.70753 -16.11059 -23.25284 -7.05902 -2.52688 -3.47889 54.90175 11.20669 3.72177 -32.54202 -9.11473 3.32699 3.97794
-0.07199 -0.00426 0.03621 166.91651 -42.53761 -0.65145 43.0305 0.46798 8.99761 9.48211 -2.3529 -2.11994 92.71918 -38.38111 28.79558 37.76767 77.32076 -8.87495 -7.93025 80.97647 16.74324 -54.82951 17.39774 -84.07242 8.21331 2.21109 50.28255 -0.32116 -16.58078 -23.0255 -7.00646 -2.49099 -3.45628 55.39239 11.66241 3.57778 -33.65632 -9.21202 3.33627 3.98739
-0.07149 -0.00495 0.03357 166.63967 -42.41075 -0.81582 43.0035 0.6361 9.02943 9.50059 -2.38293 -2.11994 77.47456 -11.82538 53.20229 17.19028 77.9308 5.0335 -5.02225 83.73702 18.59612 -55.55266 12.90563 -83.76839 7.5504 2.41978 49.96583 0.04046 -16.96739 -22.8431 -6.95696 -2.4598 -3.43748 55.93796 12.05443 3.51607 -34.72418 -9.33713 3.3659 4.00886
-0.07191 -0.00554 0.03132 166.40416 -42.41496 -0.95368 43.28052 0.77858 9.01782 9.16882 -2.3516 -2.11994 76.07903 -10.28464 57.47622 12.30248 77.89166 7.17508 -4.73323 85.6124 21.90468 -55.70133 10.92213 -85.76752 6.96043 2.64601 49.7814 0.33015 -17.09839 -22.76859 -6.91952 -2.43921 -3.4285 56.61947 12.25427 3.65762 -35.62772 -9.53278 3.45121 4.06295
